<?xml version="1.0" encoding="utf-8"?>
<!-- Generator: Adobe Illustrator 26.1.0, SVG Export Plug-In . SVG Version: 6.00 Build 0)  -->
<svg version="1.1" id="Layer_1" xmlns="http://www.w3.org/2000/svg" xmlns:xlink="http://www.w3.org/1999/xlink" x="0px" y="0px"
	 viewBox="0 0 267 265.9" style="enable-background:new 0 0 267 265.9;" xml:space="preserve">
<style type="text/css">
	.st0{display:none;}
	.st1{display:inline;fill:url(#SVGID_1_);}
	.st2{fill:none;stroke:#D6D6D6;stroke-width:8;stroke-miterlimit:10;}
</style>
<g id="Слой_2" class="st0">
	
		<linearGradient id="SVGID_1_" gradientUnits="userSpaceOnUse" x1="133.9" y1="16.1" x2="133.9" y2="252.1" gradientTransform="matrix(1 0 0 -1 0 268)">
		<stop  offset="0" style="stop-color:#1D93D2"/>
		<stop  offset="1" style="stop-color:#38B0E3"/>
	</linearGradient>
	<circle class="st1" cx="133.9" cy="133.9" r="118"/>
</g>
<g id="Слой_6">
</g>
<g id="Слой_7">
	<path class="st2" d="M101.9,167.7l-5.1,53.8c0,0-0.9,7.1,3.9,7.1c2.4,0,4-3.3,10.1-8.7"/>
</g>
<g id="Слой_5">
	<g>
		<path class="st2" d="M70.2,151.4c-0.5,0.3-1.6,0.3-2.3,0.2l25.4,70.3c0,0,3.3,6.8,6.8,6.8c2.1,0,21.6-19.4,37-35.1
			c-15.1-10.4-28.9-19.7-34.3-23.3c-0.7-0.5-0.9-1.1-1-1.7c-0.2-0.9,0.8-1.9,0.8-1.9s97-86.2,99.6-95.3c0.2-0.7-0.6-1-1.6-0.7
			C194.2,73.1,82.5,143.7,70.2,151.4"/>
		<path class="st2" d="M136.4,193.1c0,0,41.6,29,50.6,36.8c4.3,3.7,8,4.3,11,4.2c8.2-0.3,10.5-9.3,10.5-9.3s38.3-154.2,39.6-174.9
			c0.1-2,0.3-3.3,0.3-4.7c0-1.9-0.2-3.9-0.5-4.8c-0.9-2.5-1.9-3.2-3.5-3.8c-3.5-1.3-9.4,0.7-9.4,0.7s-210.3,75.6-222.3,84
			c-2.6,1.8-3.5,2.9-3.9,4.1c-2.1,6,4.4,8.6,4.4,8.6l54.2,17.7c0,0,0.2,0,0.5,0.1l2.3-0.4"/>
	</g>
</g>
</svg>
